<mxfile host="app.diagrams.net" modified="2023-01-29T06:37:26.156Z" agent="5.0 (Windows NT 10.0; Win64; x64) AppleWebKit/537.36 (KHTML, like Gecko) Chrome/109.0.0.0 Safari/537.36 Edg/109.0.1518.55" etag="1sckuWRsdTwFTFcNawEo" version="20.8.13" type="github">
  <diagram name="第 1 页" id="zwg2vvg_9aj8PHfeXNo3">
    <mxGraphModel dx="1434" dy="908" grid="1" gridSize="10" guides="1" tooltips="1" connect="1" arrows="1" fold="1" page="1" pageScale="1" pageWidth="827" pageHeight="1169" math="0" shadow="0">
      <root>
        <mxCell id="0" />
        <mxCell id="1" parent="0" />
        <mxCell id="I6TWMLQy3BOm3Pw9d9K--17" value="" style="group" vertex="1" connectable="0" parent="1">
          <mxGeometry x="120" y="50" width="580" height="260" as="geometry" />
        </mxCell>
        <mxCell id="I6TWMLQy3BOm3Pw9d9K--5" value="Gitlab" style="html=1;align=left;verticalAlign=top;container=0;" vertex="1" parent="I6TWMLQy3BOm3Pw9d9K--17">
          <mxGeometry width="580" height="260" as="geometry" />
        </mxCell>
        <mxCell id="I6TWMLQy3BOm3Pw9d9K--7" value="&lt;b&gt;Component1&lt;/b&gt;" style="html=1;dropTarget=0;align=left;verticalAlign=top;container=0;" vertex="1" parent="I6TWMLQy3BOm3Pw9d9K--17">
          <mxGeometry x="40" y="70" width="130" height="140" as="geometry" />
        </mxCell>
        <mxCell id="I6TWMLQy3BOm3Pw9d9K--9" value="&lt;b&gt;Component2&lt;/b&gt;" style="html=1;dropTarget=0;align=left;verticalAlign=top;container=0;" vertex="1" parent="I6TWMLQy3BOm3Pw9d9K--17">
          <mxGeometry x="210" y="70" width="130" height="140" as="geometry" />
        </mxCell>
        <mxCell id="I6TWMLQy3BOm3Pw9d9K--11" value="&lt;b&gt;ComponentN&lt;/b&gt;" style="html=1;dropTarget=0;align=left;verticalAlign=top;container=0;" vertex="1" parent="I6TWMLQy3BOm3Pw9d9K--17">
          <mxGeometry x="380" y="70" width="130" height="140" as="geometry" />
        </mxCell>
        <mxCell id="I6TWMLQy3BOm3Pw9d9K--14" value="Description" style="shape=module;align=left;spacingLeft=20;align=center;verticalAlign=top;container=0;" vertex="1" parent="I6TWMLQy3BOm3Pw9d9K--17">
          <mxGeometry x="50" y="140" width="100" height="50" as="geometry" />
        </mxCell>
        <mxCell id="I6TWMLQy3BOm3Pw9d9K--15" value="Description" style="shape=module;align=left;spacingLeft=20;align=center;verticalAlign=top;container=0;" vertex="1" parent="I6TWMLQy3BOm3Pw9d9K--17">
          <mxGeometry x="225" y="140" width="100" height="50" as="geometry" />
        </mxCell>
        <mxCell id="I6TWMLQy3BOm3Pw9d9K--16" value="Description" style="shape=module;align=left;spacingLeft=20;align=center;verticalAlign=top;container=0;" vertex="1" parent="I6TWMLQy3BOm3Pw9d9K--17">
          <mxGeometry x="395" y="140" width="100" height="50" as="geometry" />
        </mxCell>
        <mxCell id="I6TWMLQy3BOm3Pw9d9K--8" value="" style="shape=module;jettyWidth=8;jettyHeight=4;container=0;" vertex="1" parent="I6TWMLQy3BOm3Pw9d9K--17">
          <mxGeometry x="143" y="77" width="20" height="20" as="geometry">
            <mxPoint x="-27" y="7" as="offset" />
          </mxGeometry>
        </mxCell>
        <mxCell id="I6TWMLQy3BOm3Pw9d9K--10" value="" style="shape=module;jettyWidth=8;jettyHeight=4;container=0;" vertex="1" parent="I6TWMLQy3BOm3Pw9d9K--17">
          <mxGeometry x="313" y="77" width="20" height="20" as="geometry">
            <mxPoint x="-27" y="7" as="offset" />
          </mxGeometry>
        </mxCell>
        <mxCell id="I6TWMLQy3BOm3Pw9d9K--12" value="" style="shape=module;jettyWidth=8;jettyHeight=4;container=0;" vertex="1" parent="I6TWMLQy3BOm3Pw9d9K--17">
          <mxGeometry x="483" y="77" width="20" height="20" as="geometry">
            <mxPoint x="-27" y="7" as="offset" />
          </mxGeometry>
        </mxCell>
        <mxCell id="I6TWMLQy3BOm3Pw9d9K--18" value="Assembly Factory" style="html=1;align=left;verticalAlign=top;" vertex="1" parent="1">
          <mxGeometry x="120" y="340" width="580" height="200" as="geometry" />
        </mxCell>
        <mxCell id="I6TWMLQy3BOm3Pw9d9K--19" style="rounded=0;orthogonalLoop=1;jettySize=auto;html=1;entryX=0.5;entryY=1;entryDx=0;entryDy=0;exitX=0.5;exitY=0;exitDx=0;exitDy=0;" edge="1" parent="1" source="I6TWMLQy3BOm3Pw9d9K--25" target="I6TWMLQy3BOm3Pw9d9K--14">
          <mxGeometry relative="1" as="geometry">
            <mxPoint x="210" y="410" as="sourcePoint" />
          </mxGeometry>
        </mxCell>
        <mxCell id="I6TWMLQy3BOm3Pw9d9K--23" value="Pull" style="edgeLabel;html=1;align=center;verticalAlign=middle;resizable=0;points=[];" vertex="1" connectable="0" parent="I6TWMLQy3BOm3Pw9d9K--19">
          <mxGeometry x="0.1982" y="-2" relative="1" as="geometry">
            <mxPoint x="48" y="47" as="offset" />
          </mxGeometry>
        </mxCell>
        <mxCell id="I6TWMLQy3BOm3Pw9d9K--35" style="edgeStyle=none;rounded=0;orthogonalLoop=1;jettySize=auto;html=1;exitX=0.5;exitY=1;exitDx=0;exitDy=0;entryX=0.5;entryY=0;entryDx=0;entryDy=0;" edge="1" parent="1" source="I6TWMLQy3BOm3Pw9d9K--25" target="I6TWMLQy3BOm3Pw9d9K--34">
          <mxGeometry relative="1" as="geometry" />
        </mxCell>
        <mxCell id="I6TWMLQy3BOm3Pw9d9K--25" value="Description Parser" style="shape=module;align=left;spacingLeft=20;align=center;verticalAlign=top;container=0;" vertex="1" parent="1">
          <mxGeometry x="230" y="400" width="330" height="50" as="geometry" />
        </mxCell>
        <mxCell id="I6TWMLQy3BOm3Pw9d9K--49" style="edgeStyle=none;rounded=0;orthogonalLoop=1;jettySize=auto;html=1;" edge="1" parent="1" source="I6TWMLQy3BOm3Pw9d9K--28" target="I6TWMLQy3BOm3Pw9d9K--40">
          <mxGeometry relative="1" as="geometry" />
        </mxCell>
        <mxCell id="I6TWMLQy3BOm3Pw9d9K--28" value="Android &lt;br&gt;Assembly Plugin" style="html=1;dropTarget=0;" vertex="1" parent="1">
          <mxGeometry x="60" y="595" width="100" height="90" as="geometry" />
        </mxCell>
        <mxCell id="I6TWMLQy3BOm3Pw9d9K--29" value="" style="shape=module;jettyWidth=8;jettyHeight=4;" vertex="1" parent="I6TWMLQy3BOm3Pw9d9K--28">
          <mxGeometry x="1" width="20" height="20" relative="1" as="geometry">
            <mxPoint x="-27" y="7" as="offset" />
          </mxGeometry>
        </mxCell>
        <mxCell id="I6TWMLQy3BOm3Pw9d9K--66" style="edgeStyle=none;rounded=0;orthogonalLoop=1;jettySize=auto;html=1;" edge="1" parent="1" source="I6TWMLQy3BOm3Pw9d9K--32" target="I6TWMLQy3BOm3Pw9d9K--54">
          <mxGeometry relative="1" as="geometry" />
        </mxCell>
        <mxCell id="I6TWMLQy3BOm3Pw9d9K--32" value="iOS&lt;br&gt;Assembly Plugin" style="html=1;dropTarget=0;" vertex="1" parent="1">
          <mxGeometry x="230" y="595" width="100" height="90" as="geometry" />
        </mxCell>
        <mxCell id="I6TWMLQy3BOm3Pw9d9K--33" value="" style="shape=module;jettyWidth=8;jettyHeight=4;" vertex="1" parent="I6TWMLQy3BOm3Pw9d9K--32">
          <mxGeometry x="1" width="20" height="20" relative="1" as="geometry">
            <mxPoint x="-27" y="7" as="offset" />
          </mxGeometry>
        </mxCell>
        <mxCell id="I6TWMLQy3BOm3Pw9d9K--20" value="Pull" style="rounded=0;orthogonalLoop=1;jettySize=auto;html=1;entryX=0.5;entryY=1;entryDx=0;entryDy=0;exitX=0.5;exitY=0;exitDx=0;exitDy=0;" edge="1" parent="1" source="I6TWMLQy3BOm3Pw9d9K--25" target="I6TWMLQy3BOm3Pw9d9K--15">
          <mxGeometry x="-0.375" relative="1" as="geometry">
            <mxPoint x="395" y="410" as="sourcePoint" />
            <mxPoint as="offset" />
          </mxGeometry>
        </mxCell>
        <mxCell id="I6TWMLQy3BOm3Pw9d9K--21" style="rounded=0;orthogonalLoop=1;jettySize=auto;html=1;entryX=0.5;entryY=1;entryDx=0;entryDy=0;exitX=0.5;exitY=0;exitDx=0;exitDy=0;" edge="1" parent="1" source="I6TWMLQy3BOm3Pw9d9K--25" target="I6TWMLQy3BOm3Pw9d9K--16">
          <mxGeometry relative="1" as="geometry">
            <mxPoint x="565" y="410" as="sourcePoint" />
          </mxGeometry>
        </mxCell>
        <mxCell id="I6TWMLQy3BOm3Pw9d9K--24" value="Pull" style="edgeLabel;html=1;align=center;verticalAlign=middle;resizable=0;points=[];" vertex="1" connectable="0" parent="I6TWMLQy3BOm3Pw9d9K--21">
          <mxGeometry x="0.2151" y="4" relative="1" as="geometry">
            <mxPoint x="-51" y="50" as="offset" />
          </mxGeometry>
        </mxCell>
        <mxCell id="I6TWMLQy3BOm3Pw9d9K--36" style="edgeStyle=none;rounded=0;orthogonalLoop=1;jettySize=auto;html=1;exitX=0;exitY=1;exitDx=10;exitDy=0;entryX=0.5;entryY=0;entryDx=0;entryDy=0;exitPerimeter=0;" edge="1" parent="1" source="I6TWMLQy3BOm3Pw9d9K--34" target="I6TWMLQy3BOm3Pw9d9K--28">
          <mxGeometry relative="1" as="geometry" />
        </mxCell>
        <mxCell id="I6TWMLQy3BOm3Pw9d9K--37" style="edgeStyle=none;rounded=0;orthogonalLoop=1;jettySize=auto;html=1;entryX=0.5;entryY=0;entryDx=0;entryDy=0;exitX=0.25;exitY=1;exitDx=0;exitDy=0;" edge="1" parent="1" source="I6TWMLQy3BOm3Pw9d9K--34" target="I6TWMLQy3BOm3Pw9d9K--32">
          <mxGeometry relative="1" as="geometry">
            <mxPoint x="390" y="520" as="sourcePoint" />
          </mxGeometry>
        </mxCell>
        <mxCell id="I6TWMLQy3BOm3Pw9d9K--46" style="edgeStyle=none;rounded=0;orthogonalLoop=1;jettySize=auto;html=1;exitX=0.5;exitY=1;exitDx=0;exitDy=0;entryX=0.5;entryY=0;entryDx=0;entryDy=0;" edge="1" parent="1" source="I6TWMLQy3BOm3Pw9d9K--34" target="I6TWMLQy3BOm3Pw9d9K--38">
          <mxGeometry relative="1" as="geometry" />
        </mxCell>
        <mxCell id="I6TWMLQy3BOm3Pw9d9K--47" style="edgeStyle=none;rounded=0;orthogonalLoop=1;jettySize=auto;html=1;entryX=0.5;entryY=0;entryDx=0;entryDy=0;exitX=0.75;exitY=1;exitDx=0;exitDy=0;" edge="1" parent="1" source="I6TWMLQy3BOm3Pw9d9K--34" target="I6TWMLQy3BOm3Pw9d9K--42">
          <mxGeometry relative="1" as="geometry" />
        </mxCell>
        <mxCell id="I6TWMLQy3BOm3Pw9d9K--34" value="Assembly Manager" style="shape=module;align=left;spacingLeft=20;align=center;verticalAlign=top;container=0;" vertex="1" parent="1">
          <mxGeometry x="230" y="470" width="330" height="50" as="geometry" />
        </mxCell>
        <mxCell id="I6TWMLQy3BOm3Pw9d9K--67" style="edgeStyle=none;rounded=0;orthogonalLoop=1;jettySize=auto;html=1;entryX=0.5;entryY=0;entryDx=0;entryDy=0;" edge="1" parent="1" source="I6TWMLQy3BOm3Pw9d9K--38" target="I6TWMLQy3BOm3Pw9d9K--56">
          <mxGeometry relative="1" as="geometry" />
        </mxCell>
        <mxCell id="I6TWMLQy3BOm3Pw9d9K--38" value="WEB&lt;br&gt;Assembly Plugin" style="html=1;dropTarget=0;" vertex="1" parent="1">
          <mxGeometry x="380" y="595" width="100" height="90" as="geometry" />
        </mxCell>
        <mxCell id="I6TWMLQy3BOm3Pw9d9K--39" value="" style="shape=module;jettyWidth=8;jettyHeight=4;" vertex="1" parent="I6TWMLQy3BOm3Pw9d9K--38">
          <mxGeometry x="1" width="20" height="20" relative="1" as="geometry">
            <mxPoint x="-27" y="7" as="offset" />
          </mxGeometry>
        </mxCell>
        <mxCell id="I6TWMLQy3BOm3Pw9d9K--40" value="Android &lt;br&gt;Solution" style="html=1;dropTarget=0;align=left;verticalAlign=top;" vertex="1" parent="1">
          <mxGeometry x="60" y="750" width="100" height="90" as="geometry" />
        </mxCell>
        <mxCell id="I6TWMLQy3BOm3Pw9d9K--41" value="" style="shape=module;jettyWidth=8;jettyHeight=4;" vertex="1" parent="I6TWMLQy3BOm3Pw9d9K--40">
          <mxGeometry x="1" width="20" height="20" relative="1" as="geometry">
            <mxPoint x="-27" y="7" as="offset" />
          </mxGeometry>
        </mxCell>
        <mxCell id="I6TWMLQy3BOm3Pw9d9K--68" style="edgeStyle=none;rounded=0;orthogonalLoop=1;jettySize=auto;html=1;entryX=0.5;entryY=0;entryDx=0;entryDy=0;" edge="1" parent="1" source="I6TWMLQy3BOm3Pw9d9K--42" target="I6TWMLQy3BOm3Pw9d9K--58">
          <mxGeometry relative="1" as="geometry" />
        </mxCell>
        <mxCell id="I6TWMLQy3BOm3Pw9d9K--42" value="Flutter&lt;br&gt;Assembly Plugin" style="html=1;dropTarget=0;" vertex="1" parent="1">
          <mxGeometry x="530" y="595" width="100" height="90" as="geometry" />
        </mxCell>
        <mxCell id="I6TWMLQy3BOm3Pw9d9K--43" value="" style="shape=module;jettyWidth=8;jettyHeight=4;" vertex="1" parent="I6TWMLQy3BOm3Pw9d9K--42">
          <mxGeometry x="1" width="20" height="20" relative="1" as="geometry">
            <mxPoint x="-27" y="7" as="offset" />
          </mxGeometry>
        </mxCell>
        <mxCell id="I6TWMLQy3BOm3Pw9d9K--69" style="edgeStyle=none;rounded=0;orthogonalLoop=1;jettySize=auto;html=1;entryX=0.5;entryY=0;entryDx=0;entryDy=0;" edge="1" parent="1" source="I6TWMLQy3BOm3Pw9d9K--44" target="I6TWMLQy3BOm3Pw9d9K--60">
          <mxGeometry relative="1" as="geometry" />
        </mxCell>
        <mxCell id="I6TWMLQy3BOm3Pw9d9K--44" value="...&lt;br&gt;Assembly Plugin" style="html=1;dropTarget=0;" vertex="1" parent="1">
          <mxGeometry x="680" y="595" width="100" height="90" as="geometry" />
        </mxCell>
        <mxCell id="I6TWMLQy3BOm3Pw9d9K--45" value="" style="shape=module;jettyWidth=8;jettyHeight=4;" vertex="1" parent="I6TWMLQy3BOm3Pw9d9K--44">
          <mxGeometry x="1" width="20" height="20" relative="1" as="geometry">
            <mxPoint x="-27" y="7" as="offset" />
          </mxGeometry>
        </mxCell>
        <mxCell id="I6TWMLQy3BOm3Pw9d9K--54" value="iOS&lt;br&gt;Solution" style="html=1;dropTarget=0;align=left;verticalAlign=top;" vertex="1" parent="1">
          <mxGeometry x="230" y="750" width="100" height="90" as="geometry" />
        </mxCell>
        <mxCell id="I6TWMLQy3BOm3Pw9d9K--55" value="" style="shape=module;jettyWidth=8;jettyHeight=4;" vertex="1" parent="I6TWMLQy3BOm3Pw9d9K--54">
          <mxGeometry x="1" width="20" height="20" relative="1" as="geometry">
            <mxPoint x="-27" y="7" as="offset" />
          </mxGeometry>
        </mxCell>
        <mxCell id="I6TWMLQy3BOm3Pw9d9K--56" value="Web&lt;br&gt;Solution" style="html=1;dropTarget=0;align=left;verticalAlign=top;" vertex="1" parent="1">
          <mxGeometry x="370" y="750" width="120" height="90" as="geometry" />
        </mxCell>
        <mxCell id="I6TWMLQy3BOm3Pw9d9K--57" value="" style="shape=module;jettyWidth=8;jettyHeight=4;" vertex="1" parent="I6TWMLQy3BOm3Pw9d9K--56">
          <mxGeometry x="1" width="20" height="20" relative="1" as="geometry">
            <mxPoint x="-27" y="7" as="offset" />
          </mxGeometry>
        </mxCell>
        <mxCell id="I6TWMLQy3BOm3Pw9d9K--58" value="Flutter&lt;br&gt;Solution" style="html=1;dropTarget=0;align=left;verticalAlign=top;" vertex="1" parent="1">
          <mxGeometry x="515" y="750" width="130" height="90" as="geometry" />
        </mxCell>
        <mxCell id="I6TWMLQy3BOm3Pw9d9K--59" value="" style="shape=module;jettyWidth=8;jettyHeight=4;" vertex="1" parent="I6TWMLQy3BOm3Pw9d9K--58">
          <mxGeometry x="1" width="20" height="20" relative="1" as="geometry">
            <mxPoint x="-27" y="7" as="offset" />
          </mxGeometry>
        </mxCell>
        <mxCell id="I6TWMLQy3BOm3Pw9d9K--60" value="Other&lt;br&gt;Solution" style="html=1;dropTarget=0;align=left;verticalAlign=top;" vertex="1" parent="1">
          <mxGeometry x="660" y="750" width="140" height="90" as="geometry" />
        </mxCell>
        <mxCell id="I6TWMLQy3BOm3Pw9d9K--61" value="" style="shape=module;jettyWidth=8;jettyHeight=4;" vertex="1" parent="I6TWMLQy3BOm3Pw9d9K--60">
          <mxGeometry x="1" width="20" height="20" relative="1" as="geometry">
            <mxPoint x="-27" y="7" as="offset" />
          </mxGeometry>
        </mxCell>
        <mxCell id="I6TWMLQy3BOm3Pw9d9K--62" value="gradle" style="shape=module;align=left;spacingLeft=20;align=center;verticalAlign=top;" vertex="1" parent="1">
          <mxGeometry x="75" y="790" width="70" height="40" as="geometry" />
        </mxCell>
        <mxCell id="I6TWMLQy3BOm3Pw9d9K--63" value="podspec" style="shape=module;align=left;spacingLeft=20;align=center;verticalAlign=top;" vertex="1" parent="1">
          <mxGeometry x="240" y="790" width="80" height="40" as="geometry" />
        </mxCell>
        <mxCell id="I6TWMLQy3BOm3Pw9d9K--64" value="pakcage.json" style="shape=module;align=left;spacingLeft=20;align=center;verticalAlign=top;" vertex="1" parent="1">
          <mxGeometry x="380" y="790" width="100" height="40" as="geometry" />
        </mxCell>
        <mxCell id="I6TWMLQy3BOm3Pw9d9K--65" value="pubspec.yaml" style="shape=module;align=left;spacingLeft=20;align=center;verticalAlign=top;" vertex="1" parent="1">
          <mxGeometry x="525" y="790" width="110" height="40" as="geometry" />
        </mxCell>
        <mxCell id="I6TWMLQy3BOm3Pw9d9K--70" value="other build system" style="shape=module;align=left;spacingLeft=20;align=center;verticalAlign=top;" vertex="1" parent="1">
          <mxGeometry x="665" y="790" width="130" height="40" as="geometry" />
        </mxCell>
        <mxCell id="I6TWMLQy3BOm3Pw9d9K--48" style="edgeStyle=none;rounded=0;orthogonalLoop=1;jettySize=auto;html=1;entryX=0.5;entryY=0;entryDx=0;entryDy=0;exitX=1;exitY=1;exitDx=0;exitDy=0;" edge="1" parent="1" source="I6TWMLQy3BOm3Pw9d9K--34" target="I6TWMLQy3BOm3Pw9d9K--44">
          <mxGeometry relative="1" as="geometry" />
        </mxCell>
      </root>
    </mxGraphModel>
  </diagram>
</mxfile>
